# Blender v2.82 (sub 1) OBJ File: ''
# www.blender.org
mtllib UnitCubeOutline.mtl
o Cube.001
v 0.992494 0.992494 0.992495
v 1.007506 1.007506 1.007506
v 0.992494 0.992494 0.007506
v 1.007506 1.007506 -0.007505
v 0.007506 0.992494 0.007506
v -0.007506 1.007506 -0.007505
v 0.007506 0.992494 0.992495
v -0.007506 1.007506 1.007506
v 0.992494 0.007506 0.007506
v 1.007506 -0.007506 -0.007506
v 0.007506 0.007506 0.007506
v -0.007506 -0.007506 -0.007506
v 0.007506 0.007505 0.992494
v -0.007506 -0.007506 1.007506
v 0.992494 0.007505 0.992494
v 1.007506 -0.007506 1.007506
v 0.987000 1.000000 0.987000
v 0.987000 1.000000 0.013000
v 0.013000 1.000000 0.013000
v 0.013000 1.000000 0.987000
v 0.987000 0.013000 0.000000
v 0.013000 0.013000 0.000000
v 0.013000 0.987000 0.000000
v 0.987000 0.987000 0.000000
v 0.000000 0.013000 0.013000
v 0.000000 0.013000 0.987000
v 0.000000 0.987000 0.987000
v 0.000000 0.987000 0.013000
v 0.013000 -0.000000 0.987000
v 0.013000 -0.000000 0.013000
v 0.987000 -0.000000 0.013000
v 0.987000 -0.000000 0.987000
v 1.000000 0.013000 0.987000
v 1.000000 0.013000 0.013000
v 1.000000 0.987000 0.013000
v 1.000000 0.987000 0.987000
v 0.013000 0.013000 1.000000
v 0.987000 0.013000 1.000000
v 0.987000 0.987000 1.000000
v 0.013000 0.987000 1.000000
vt 0.500000 0.500000
vt 0.500000 1.000000
vt 0.500000 1.000000
vt 0.500000 0.500000
vt -0.000000 0.500000
vt 0.500000 0.500000
vt -0.000000 0.500000
vt -0.000000 1.000000
vt -0.000000 0.500000
vt -0.000000 1.000000
vt -0.000000 1.000000
vt 0.500000 1.000000
vt -0.000000 -0.000000
vt 0.500000 -0.000000
vt 0.500000 -0.000000
vt -0.000000 -0.000000
vt -0.000000 0.500000
vt -0.000000 -0.000000
vt 0.500000 0.500000
vt 0.500000 -0.000000
vt 0.000000 -0.000000
vt 0.500000 -0.000000
vt 0.500000 -0.000000
vt 0.000000 -0.000000
vt -0.000000 0.500000
vt 0.000000 -0.000000
vt -0.000000 0.500000
vt 0.500000 0.500000
vt -0.000000 0.500000
vt 0.500000 0.500000
vt 0.500000 0.500000
vt 0.500000 -0.000000
vt 1.000000 0.500000
vt 1.000000 1.000000
vt 1.000000 1.000000
vt 1.000000 0.500000
vt 0.500000 0.500000
vt 1.000000 0.500000
vt 0.500000 0.500000
vt 0.500000 1.000000
vt 0.500000 0.500000
vt 0.500000 1.000000
vt 0.500000 1.000000
vt 1.000000 1.000000
vt -0.000000 -0.000000
vt 0.500000 -0.000000
vt 0.500000 -0.000000
vt -0.000000 -0.000000
vt -0.000000 0.500000
vt -0.000000 -0.000000
vt -0.000000 0.500000
vt 0.500000 0.500000
vt -0.000000 0.500000
vt 0.500000 0.500000
vt 0.500000 0.500000
vt 0.500000 -0.000000
vt -0.000000 -0.000000
vt 0.500000 0.000000
vt 0.500000 0.000000
vt -0.000000 -0.000000
vt -0.000000 0.500000
vt -0.000000 -0.000000
vt -0.000000 0.500000
vt 0.500000 0.500000
vt -0.000000 0.500000
vt 0.500000 0.500000
vt 0.500000 0.500000
vt 0.500000 0.000000
vn -0.6242 0.4700 0.6242
vn -0.5774 -0.5773 -0.5773
vn -0.6242 0.4700 -0.6241
vn 0.5774 0.5773 -0.5774
vn 0.6242 0.4700 0.6241
vn -0.5774 -0.5774 0.5774
vn -0.5773 0.5774 -0.5774
vn 0.6242 0.4700 -0.6242
vn 0.5774 -0.5774 0.5774
vn -0.5773 0.5774 0.5773
vn 0.5773 -0.5774 -0.5774
vn 0.5774 0.5774 0.5773
vn 0.6242 0.6242 -0.4700
vn -0.5774 0.5774 0.5774
vn -0.6241 0.6242 -0.4700
vn -0.5774 -0.5774 -0.5774
vn 0.6242 -0.6241 -0.4700
vn 0.5774 0.5774 0.5774
vn -0.6242 -0.6242 -0.4700
vn 0.5774 -0.5774 -0.5773
vn -0.4700 0.6242 -0.6242
vn -0.4700 0.6242 0.6242
vn -0.5774 -0.5773 0.5773
vn -0.4700 -0.6241 -0.6242
vn 0.5774 0.5774 -0.5773
vn -0.4700 -0.6241 0.6242
vn 0.6242 -0.4700 0.6242
vn 0.6242 -0.4700 -0.6241
vn -0.6241 -0.4700 0.6242
vn -0.6242 -0.4700 -0.6242
vn 0.4700 0.6241 0.6242
vn 0.4700 0.6241 -0.6242
vn 0.4700 -0.6242 0.6241
vn 0.4700 -0.6241 -0.6242
vn -0.6242 0.6242 0.4700
vn 0.6241 0.6241 0.4700
vn -0.6241 -0.6242 0.4700
vn 0.6242 -0.6242 0.4700
usemtl Default_OBJ
s 1
f 18/1/1 1/2/2 17/3/3
f 17/3/3 4/4/4 18/1/1
f 19/5/5 3/6/6 18/1/1
f 18/1/1 6/7/7 19/5/5
f 20/8/8 5/9/9 19/5/5
f 19/5/5 8/10/10 20/8/8
f 17/3/3 7/11/11 20/8/8
f 20/8/8 2/12/12 17/3/3
f 22/13/13 9/14/14 21/15/15
f 21/15/15 12/16/16 22/13/13
f 23/17/17 11/18/18 22/13/13
f 22/13/13 6/7/7 23/17/17
f 24/19/19 5/9/9 23/17/17
f 23/17/17 4/4/4 24/19/19
f 21/15/15 3/6/6 24/19/19
f 24/19/19 10/20/20 21/15/15
f 26/21/21 11/22/18 25/23/22
f 25/23/22 14/24/23 26/21/21
f 27/25/24 13/26/25 26/21/21
f 26/21/21 8/27/10 27/25/24
f 28/28/26 7/29/11 27/25/24
f 27/25/24 6/30/7 28/28/26
f 25/23/22 5/31/9 28/28/26
f 28/28/26 12/32/16 25/23/22
f 30/33/27 13/34/25 29/35/28
f 29/35/28 12/36/16 30/33/27
f 31/37/29 11/38/18 30/33/27
f 30/33/27 10/39/20 31/37/29
f 32/40/30 9/41/14 31/37/29
f 31/37/29 16/42/9 32/40/30
f 29/35/28 15/43/7 32/40/30
f 32/40/30 14/44/23 29/35/28
f 34/45/31 15/46/7 33/47/32
f 33/47/32 10/48/20 34/45/31
f 35/49/33 9/50/14 34/45/31
f 34/45/31 4/51/4 35/49/33
f 36/52/34 3/53/6 35/49/33
f 35/49/33 2/54/12 36/52/34
f 33/47/32 1/55/2 36/52/34
f 36/52/34 16/56/9 33/47/32
f 38/57/35 13/58/25 37/59/36
f 37/59/36 16/60/9 38/57/35
f 39/61/37 15/62/7 38/57/35
f 38/57/35 2/63/12 39/61/37
f 40/64/38 1/65/2 39/61/37
f 39/61/37 8/66/10 40/64/38
f 37/59/36 7/67/11 40/64/38
f 40/64/38 14/68/23 37/59/36
f 18/1/1 3/6/6 1/2/2
f 17/3/3 2/12/12 4/4/4
f 19/5/5 5/9/9 3/6/6
f 18/1/1 4/4/4 6/7/7
f 20/8/8 7/11/11 5/9/9
f 19/5/5 6/7/7 8/10/10
f 17/3/3 1/2/2 7/11/11
f 20/8/8 8/10/10 2/12/12
f 22/13/13 11/18/18 9/14/14
f 21/15/15 10/20/20 12/16/16
f 23/17/17 5/9/9 11/18/18
f 22/13/13 12/16/16 6/7/7
f 24/19/19 3/6/6 5/9/9
f 23/17/17 6/7/7 4/4/4
f 21/15/15 9/14/14 3/6/6
f 24/19/19 4/4/4 10/20/20
f 26/21/21 13/26/25 11/22/18
f 25/23/22 12/32/16 14/24/23
f 27/25/24 7/29/11 13/26/25
f 26/21/21 14/24/23 8/27/10
f 28/28/26 5/31/9 7/29/11
f 27/25/24 8/27/10 6/30/7
f 25/23/22 11/22/18 5/31/9
f 28/28/26 6/30/7 12/32/16
f 30/33/27 11/38/18 13/34/25
f 29/35/28 14/44/23 12/36/16
f 31/37/29 9/41/14 11/38/18
f 30/33/27 12/36/16 10/39/20
f 32/40/30 15/43/7 9/41/14
f 31/37/29 10/39/20 16/42/9
f 29/35/28 13/34/25 15/43/7
f 32/40/30 16/42/9 14/44/23
f 34/45/31 9/50/14 15/46/7
f 33/47/32 16/56/9 10/48/20
f 35/49/33 3/53/6 9/50/14
f 34/45/31 10/48/20 4/51/4
f 36/52/34 1/55/2 3/53/6
f 35/49/33 4/51/4 2/54/12
f 33/47/32 15/46/7 1/55/2
f 36/52/34 2/54/12 16/56/9
f 38/57/35 15/62/7 13/58/25
f 37/59/36 14/68/23 16/60/9
f 39/61/37 1/65/2 15/62/7
f 38/57/35 16/60/9 2/63/12
f 40/64/38 7/67/11 1/65/2
f 39/61/37 2/63/12 8/66/10
f 37/59/36 13/58/25 7/67/11
f 40/64/38 8/66/10 14/68/23
