# Blender v2.82 (sub 1) OBJ File: ''
# www.blender.org
o Cube
v 1 1 1
v 1 0 1
v 1 1 0
v 1 0 0
v 0 1 1
v 0 0 1
v 0 1 0
v 0 0 0


vt 0.5 1.0
vt 0.5 0.5
vt -0.0 0.5
vt -0.0 1.0
vt 0.5 -0.0
vt -0.0 -0.0
vt 0.5 0.5
vt 0.5 -0.0
vt 0.0 -0.0
vt -0.0 0.5
vt 0.5 0.5
vt 1.0 1.0
vt 1.0 0.5
vt 0.5 0.5
vt 0.5 1.0
vt 0.5 -0.0
vt -0.0 -0.0
vt -0.0 0.5
vt 0.5 0.5
vt 0.5 0.0
vt -0.0 -0.0
vt -0.0 0.5
vt 0.5 0.5
vn 0.0 1.0 0.0
vn 0.0 0.0 -1.0
vn -1.0 0.0 0.0
vn 0.0 -1.0 0.0
vn 1.0 0.0 0.0
vn 0.0 0.0 1.0
s off
f 1/1/1 3/2/1 7/3/1 5/4/1
f 4/5/2 8/6/2 7/3/2 3/7/2
f 8/8/3 6/9/3 5/10/3 7/11/3
f 6/12/4 8/13/4 4/14/4 2/15/4
f 2/16/5 4/17/5 3/18/5 1/19/5
f 6/20/6 2/21/6 1/22/6 5/23/6
