# Blender v2.82 (sub 1) OBJ File: ''
# www.blender.org
o Cube
v 0.500000 0.500000 0.500000
v 0.500000 -0.500000 0.500000
v 0.500000 0.500000 -0.500000
v 0.500000 -0.500000 -0.500000
v -0.500000 0.500000 0.500000
v -0.500000 -0.500000 0.500000
v -0.500000 0.500000 -0.500000
v -0.500000 -0.500000 -0.500000
vt 0.498936 0.999872
vt 0.499936 0.499987
vt -0.000070 0.500064
vt -0.000013 1.000007
vt 0.499970 -0.000043
vt -0.000037 -0.000011
vt 0.500019 0.500024
vt 0.500028 -0.000033
vt 0.000003 -0.000002
vt -0.000093 0.499934
vt 0.499967 0.499994
vt 0.999821 1.000027
vt 0.999917 0.500111
vt 0.500082 0.500012
vt 0.500123 0.999870
vt 0.499965 -0.000016
vt -0.000052 -0.000027
vt -0.000054 0.499993
vt 0.499981 0.499961
vt 0.499982 0.000001
vt -0.000070 -0.000011
vt -0.000054 0.499976
vt 0.499999 0.499968
vn 0.0000 1.0000 0.0000
vn 0.0000 0.0000 -1.0000
vn -1.0000 0.0000 0.0000
vn 0.0000 -1.0000 0.0000
vn 1.0000 0.0000 0.0000
vn 0.0000 0.0000 1.0000
s off
f 1/1/1 3/2/1 7/3/1 5/4/1
f 4/5/2 8/6/2 7/3/2 3/7/2
f 8/8/3 6/9/3 5/10/3 7/11/3
f 6/12/4 8/13/4 4/14/4 2/15/4
f 2/16/5 4/17/5 3/18/5 1/19/5
f 6/20/6 2/21/6 1/22/6 5/23/6
